<svg width="98" height="23" viewBox="0 0 98 23" fill="none" xmlns="http://www.w3.org/2000/svg">
<path d="M85.9747 0.149058L85.8974 0.0124512L84.1248 3.17538L90.1165 13.7566H78.1306L73.7959 21.4447L77.3687 21.4452L79.9816 16.8187H91.8118L94.4288 21.4452L97.9999 21.4447L85.9747 0.149058Z" fill="#001135"/>
<path d="M70.9919 0.70459H67.7441V21.4447H70.9919V0.70459Z" fill="#001135"/>
<path d="M51.5486 11.0747L63.8042 0.70459H58.9904L46.8147 11.0074L46.7349 11.0747L58.9657 21.4239L58.9904 21.4449H63.8054L51.5486 11.0747Z" fill="#001135"/>
<path d="M43.4821 6.86456C42.9491 5.58681 42.1374 4.42188 41.0698 3.4018C40.0021 2.38243 38.7823 1.60636 37.4443 1.09526C36.1072 0.584629 34.6153 0.324368 33.0099 0.321777C33.0022 0.321777 32.9946 0.321777 32.9869 0.321777C31.3904 0.321777 29.9099 0.577328 28.5862 1.0816C27.255 1.58869 26.0458 2.36123 24.992 3.37754C23.9383 4.39409 23.1361 5.56161 22.6078 6.84784C22.0799 8.13313 21.811 9.57245 21.8086 11.1255C21.8063 12.6395 22.0689 14.0466 22.5894 15.3078C23.1101 16.5698 23.9032 17.7204 24.9463 18.7277C25.9895 19.7349 27.1806 20.5015 28.4866 21.0065C29.7917 21.511 31.2475 21.7682 32.8135 21.7705C32.8218 21.7705 32.8298 21.7705 32.8378 21.7705C34.4679 21.7705 35.9809 21.5183 37.3345 21.0206C38.6963 20.5199 39.9348 19.7572 41.0156 18.7536C42.0967 17.7496 42.9199 16.5964 43.4618 15.326C44.0035 14.0562 44.2793 12.6348 44.2817 11.101C44.2841 9.56774 44.0148 8.14231 43.4818 6.86456H43.4821ZM38.7446 16.6256C37.982 17.3697 37.1131 17.9349 36.1627 18.3059C35.2161 18.6754 34.1612 18.8627 33.0269 18.8627C33.0217 18.8627 33.0163 18.8627 33.0111 18.8627C31.8756 18.861 30.8214 18.674 29.8774 18.3071C28.9343 17.9406 28.0742 17.3836 27.3212 16.652C26.5684 15.9207 25.9963 15.0857 25.6211 14.1705C25.2457 13.2547 25.0563 12.2321 25.058 11.1305C25.0596 9.99429 25.2518 8.94547 25.6289 8.01372C26.0058 7.08267 26.5783 6.24088 27.3308 5.51192C28.0836 4.78271 28.952 4.22875 29.912 3.86509C30.8685 3.50285 31.9435 3.31913 33.107 3.31913C33.1126 3.31913 33.1183 3.31913 33.1239 3.31913C34.2345 3.32078 35.2717 3.50944 36.207 3.87993C37.1418 4.25018 38.0013 4.81263 38.7618 5.55196C39.5219 6.29105 40.0992 7.12671 40.4781 8.03586C40.8573 8.94547 41.0488 9.95519 41.0472 11.0365C41.0462 11.5763 41.0001 12.1018 40.9094 12.5983C40.6272 14.1439 39.8987 15.4989 38.7444 16.6256H38.7446Z" fill="#001135"/>
<path d="M0 0V21.445H3.31438L3.31461 7.26139L20.3938 21.9575L20.5399 22.0833V17.644L0 0Z" fill="#001135"/>
</svg>
